<?xml version="1.0" encoding="utf-8"?>
<!-- Generator: Adobe Illustrator 30.2.1, SVG Export Plug-In . SVG Version: 9.03 Build 0)  -->
<svg version="1.0" id="Layer_1" xmlns="http://www.w3.org/2000/svg" xmlns:xlink="http://www.w3.org/1999/xlink" x="0px" y="0px"
	 viewBox="0 0 64 64" style="enable-background:new 0 0 64 64;" xml:space="preserve">
<style type="text/css">
	.st0{fill:#151514;}
	.st1{fill:#10110F;}
	.st2{fill:url(#SVGID_1_);}
	.st3{fill:#FF7806;}
	.st4{fill:url(#SVGID_00000084495377012163312840000004070627337677735822_);}
	.st5{fill:none;stroke:#FFFFFF;stroke-width:0.75;stroke-miterlimit:10;}

		.st6{fill:url(#SVGID_00000179632022319217466340000005687889376555860878_);stroke:#FFFFFF;stroke-width:0.5;stroke-miterlimit:10;}
	.st7{fill:#FFFFFF;}

		.st8{fill:url(#SVGID_00000072996833818071888910000004553279109773590922_);stroke:#FFFFFF;stroke-width:0.5;stroke-miterlimit:10;}

		.st9{fill:url(#SVGID_00000083077729625177050480000016577606814123196587_);stroke:#FFFFFF;stroke-width:0.5;stroke-miterlimit:10;}
	.st10{fill:url(#SVGID_00000166635655307057749960000006724832174217540766_);}
	.st11{fill:url(#SVGID_00000118365514084316194060000012174222289173385653_);}
	.st12{fill:#FD6403;}
	.st13{fill:#FE6205;}
	.st14{font-family:'MyriadPro-Regular';}
	.st15{font-size:1.7051px;}
</style>
<polygon class="st0" points="50.33,17.05 31.99,8 12.87,16.79 12.87,12.87 31.98,2.2 50.33,13.08 "/>
<path class="st1" d="M46.54,32.69C42,38.28,37.38,43.27,31.99,46.41c-6.17-3.98-11.22-8.51-14.56-13.71l14.56,7.43L46.54,32.69z"/>
<linearGradient id="SVGID_1_" gradientUnits="userSpaceOnUse" x1="34.2214" y1="41.9518" x2="46.8004" y2="34.5783">
	<stop  offset="0" style="stop-color:#090908"/>
	<stop  offset="0.2119" style="stop-color:#131312"/>
	<stop  offset="0.5775" style="stop-color:#1D1D1D"/>
	<stop  offset="1" style="stop-color:#202020"/>
</linearGradient>
<path class="st2" d="M31.99,46.41c5.4-3.13,9.98-8.13,14.52-13.71l-14.52,7.43V46.41z"/>
<path class="st3" d="M37.61,13.94c4.61,3.36,9.01,6.65,11.25,10.45c-2.7,3.64-6.63,7.24-11.25,10.65c7.12-2.98,14.5-6.06,17.52-7.5
	c-2.54,0.42-5.23,1.21-8.02,2.24l5.58-5.39l-6.56-6.32l7.27,2.48C50.07,18.77,43.78,16.34,37.61,13.94z"/>
<path class="st1" d="M31.99,11.39L7.43,22.16l8.28-1.87l-4.75,4.1l4.93,4.63l-7.67-1.69l23.78,10.06
	c6.41-3.71,11.85-8.02,15.65-13.01C42.95,18.53,37.4,14.31,31.99,11.39z M22.46,31.02l-7.33-6.63l7.14-5.96l2.58-0.8
	c-2.6,3.68-3.4,7.25-1.72,10.86c-0.62,0.59-0.44,1.5-0.15,2.03c0.2,0.37,0.86,0.94,1.81,0.76c0.23,0.28,0.44,0.43,0.71,0.71
	L22.46,31.02z"/>
<radialGradient id="SVGID_00000035496049437185823740000011704682576059945138_" cx="31.9411" cy="24.2123" r="4.3891" gradientUnits="userSpaceOnUse">
	<stop  offset="0.3162" style="stop-color:#FFFFFF"/>
	<stop  offset="0.4301" style="stop-color:#FFE0C3"/>
	<stop  offset="0.6758" style="stop-color:#FFA047"/>
	<stop  offset="0.7842" style="stop-color:#FF8615"/>
	<stop  offset="0.8718" style="stop-color:#FF7E05"/>
</radialGradient>
<circle style="fill:url(#SVGID_00000035496049437185823740000011704682576059945138_);" cx="31.94" cy="24.21" r="4.39"/>
<circle class="st5" cx="31.94" cy="24.21" r="4.39"/>
<g>
	<path class="st5" d="M37.74,27.03c0.39-0.85,0.62-1.81,0.62-2.82c0-3.31-2.38-6.05-5.47-6.52"/>
	<path class="st5" d="M27.26,28.72c1.17,1.28,2.83,2.08,4.68,2.08c1.9,0,3.6-0.84,4.77-2.19"/>
	<path class="st5" d="M31,17.69c-3.1,0.47-5.47,3.21-5.47,6.52c0,1.06,0.24,2.06,0.68,2.95"/>
</g>
<g>

		<radialGradient id="SVGID_00000031174441196507438590000008189879568643563669_" cx="31.9902" cy="13.898" r="1.3446" gradientUnits="userSpaceOnUse">
		<stop  offset="0.3162" style="stop-color:#FFFFFF"/>
		<stop  offset="0.4301" style="stop-color:#FFE0C3"/>
		<stop  offset="0.6758" style="stop-color:#FFA047"/>
		<stop  offset="0.7842" style="stop-color:#FF8615"/>
		<stop  offset="0.8718" style="stop-color:#FF7E05"/>
	</radialGradient>

		<circle style="fill:url(#SVGID_00000031174441196507438590000008189879568643563669_);stroke:#FFFFFF;stroke-width:0.5;stroke-miterlimit:10;" cx="31.99" cy="13.9" r="1.34"/>
	<rect x="31.52" y="15.23" class="st7" width="0.92" height="4.39"/>
</g>
<g>

		<radialGradient id="SVGID_00000035499394644124745970000002797103115171476150_" cx="-257.3586" cy="-0.2921" r="1.3446" gradientTransform="matrix(-0.5604 -0.8282 0.8282 -0.5604 -119.5102 -183.7576)" gradientUnits="userSpaceOnUse">
		<stop  offset="0.3162" style="stop-color:#FFFFFF"/>
		<stop  offset="0.4301" style="stop-color:#FFE0C3"/>
		<stop  offset="0.6758" style="stop-color:#FFA047"/>
		<stop  offset="0.7842" style="stop-color:#FF8615"/>
		<stop  offset="0.8718" style="stop-color:#FF7E05"/>
	</radialGradient>

		<circle style="fill:url(#SVGID_00000035499394644124745970000002797103115171476150_);stroke:#FFFFFF;stroke-width:0.5;stroke-miterlimit:10;" cx="24.46" cy="29.56" r="1.34"/>

		<rect x="26.63" y="25.96" transform="matrix(-0.5604 -0.8282 0.8282 -0.5604 19.2556 65.8149)" class="st7" width="0.92" height="3.68"/>
</g>
<g>

		<radialGradient id="SVGID_00000084499220721285336210000011703782369436555194_" cx="321.109" cy="-56.246" r="1.3446" gradientTransform="matrix(-0.5653 0.8249 -0.8249 -0.5653 174.8072 -267.2164)" gradientUnits="userSpaceOnUse">
		<stop  offset="0.3162" style="stop-color:#FFFFFF"/>
		<stop  offset="0.4301" style="stop-color:#FFE0C3"/>
		<stop  offset="0.6758" style="stop-color:#FFA047"/>
		<stop  offset="0.7842" style="stop-color:#FF8615"/>
		<stop  offset="0.8718" style="stop-color:#FF7E05"/>
	</radialGradient>

		<circle style="fill:url(#SVGID_00000084499220721285336210000011703782369436555194_);stroke:#FFFFFF;stroke-width:0.5;stroke-miterlimit:10;" cx="39.68" cy="29.46" r="1.34"/>

		<rect x="36.56" y="25.72" transform="matrix(-0.5653 0.8249 -0.8249 -0.5653 80.7297 12.6944)" class="st7" width="0.92" height="3.8"/>
</g>
<linearGradient id="SVGID_00000078753345298084057230000016913786828185652357_" gradientUnits="userSpaceOnUse" x1="33.9309" y1="6.1265" x2="49.9746" y2="14.6231">
	<stop  offset="0" style="stop-color:#090908"/>
	<stop  offset="0.2119" style="stop-color:#131312"/>
	<stop  offset="0.5775" style="stop-color:#1D1D1D"/>
	<stop  offset="1" style="stop-color:#202020"/>
</linearGradient>
<polygon style="fill:url(#SVGID_00000078753345298084057230000016913786828185652357_);" points="31.98,2.2 31.99,8 50.33,17.05
	50.33,13.08 "/>
<linearGradient id="SVGID_00000019680023076664622110000003390923264353147048_" gradientUnits="userSpaceOnUse" x1="45.2393" y1="12.4756" x2="51.1052" y2="15.5821">
	<stop  offset="0" style="stop-color:#090908;stop-opacity:0.3"/>
	<stop  offset="0.2119" style="stop-color:#131312;stop-opacity:0.3424"/>
	<stop  offset="0.5775" style="stop-color:#1D1D1D;stop-opacity:0.4155"/>
	<stop  offset="1" style="stop-color:#202020;stop-opacity:0.5"/>
</linearGradient>
<path style="fill:url(#SVGID_00000019680023076664622110000003390923264353147048_);" d="M50.33,13.08c0,0-3.6,0.64-5.95,1.03
	l5.95,2.94V13.08z"/>
<polygon class="st1" points="1.82,57.84 0.23,57.84 0.23,50.11 8.04,54.94 8.04,50.14 9.63,50.14 9.63,57.86 1.83,53.02 "/>
<rect x="14.35" y="50.11" class="st12" width="8.83" height="1.54"/>
<rect x="14.35" y="56.33" class="st12" width="8.83" height="1.54"/>
<rect x="14.35" y="53.26" class="st12" width="8.24" height="1.47"/>
<polygon class="st1" points="27.39,50.12 27.39,51.66 31.1,51.66 31.1,57.83 32.68,57.83 32.68,51.65 36.4,51.65 36.4,50.12 "/>
<path class="st1" d="M40.52,50.13v1.52h6.38c0.49,0.1,0.89,0.28,0.9,0.99c-0.03,0.76-0.39,0.83-0.89,0.93h-6.4v4.28h1.65v-2.69h3.95
	l1.78,2.74h1.94l-1.94-2.93c0.94-0.51,1.59-1.22,1.57-2.36c-0.03-1.2-0.68-2.38-2.27-2.48H40.52z"/>
<polygon class="st1" points="52.49,57.91 54.58,57.91 58.21,52.99 61.92,57.91 63.89,57.91 58.23,50.11 "/>
<path class="st13" d="M58.22,55.7l-1.63,2.21h3.18C59.77,57.91,58.21,55.7,58.22,55.7z"/>
<text transform="matrix(1.1049 0 0 1 0.1108 61.6289)"><tspan x="0" y="0" class="st14 st15">NETWORK EVIDENCE</tspan><tspan x="23.54" y="0" class="st12 st14 st15">.</tspan></text>
<text transform="matrix(1.0972 0 0 1 28.2695 61.6289)"><tspan x="0" y="0" class="st14 st15">TOTAL RESPONSE</tspan><tspan x="20.25" y="0" class="st12 st14 st15">.</tspan></text>
<text transform="matrix(1.0972 0 0 1 52.1968 61.6289)"><tspan x="0" y="0" class="st14 st15">ASSURED</tspan><tspan x="10.56" y="0" class="st12 st14 st15">.</tspan></text>
</svg>
