<?xml version="1.0" encoding="utf-8"?>
<!-- Generator: Adobe Illustrator 30.2.1, SVG Export Plug-In . SVG Version: 9.03 Build 0)  -->
<svg version="1.0" id="Layer_1" xmlns="http://www.w3.org/2000/svg" xmlns:xlink="http://www.w3.org/1999/xlink" x="0px" y="0px"
	 viewBox="0 0 2400 500" style="enable-background:new 0 0 2400 500;" xml:space="preserve">
<style type="text/css">
	.st0{fill:#10110F;}
	.st1{font-family:'MyriadPro-Regular';}
	.st2{font-size:63.6597px;}
	.st3{letter-spacing:19.91;}
	.st4{letter-spacing:20.05;}
</style>
<polygon class="st0" points="74.36,391.73 15.04,391.73 15.04,103.24 306.78,283.67 306.78,104.22 366.11,104.22 366.11,392.54
	74.68,211.78 "/>
<rect x="542.13" y="103.24" class="st0" width="329.56" height="57.62"/>
<rect x="542.13" y="335.5" class="st0" width="329.56" height="57.62"/>
<rect x="542.13" y="220.59" class="st0" width="307.55" height="54.93"/>
<polygon class="st0" points="1028.88,103.57 1028.88,160.94 1167.59,160.94 1167.59,391.24 1226.59,391.24 1226.59,160.61
	1365.45,160.61 1365.45,103.57 "/>
<path class="st0" d="M1519.31,104.07v56.6h238.37c18.29,3.75,33.13,10.49,33.68,36.98c-1.12,28.44-14.74,30.95-33.07,34.72h-238.98
	v159.89h61.61V291.89h147.42l66.38,102.31h72.24l-72.49-109.28c35.1-19.21,59.33-45.51,58.55-88.13
	c-1.2-44.94-25.22-88.95-84.59-92.72L1519.31,104.07z"/>
<polygon class="st0" points="1966.17,394.2 2044.08,394.2 2179.52,210.52 2318.06,394.2 2391.73,394.2 2180.58,103.11 "/>
<path class="st0" d="M2180.17,311.73l-60.79,82.47h118.65C2238.03,394.2,2179.84,311.73,2180.17,311.73z"/>
<text transform="matrix(1.1049 0 0 1 10.6348 483.2158)" class="st0 st1 st2 st3">NETWORK EVIDENCE.</text>
<text transform="matrix(1.0972 0 0 1 1061.8867 483.2158)" class="st0 st1 st2 st4">TOTAL RESPONSE.</text>
<text transform="matrix(1.0972 0 0 1 1955.208 483.2148)" class="st0 st1 st2 st4">ASSURED.</text>
</svg>
