<?xml version="1.0" encoding="utf-8"?>
<!-- Generator: Adobe Illustrator 30.2.1, SVG Export Plug-In . SVG Version: 9.03 Build 0)  -->
<svg version="1.0" id="Layer_1" xmlns="http://www.w3.org/2000/svg" xmlns:xlink="http://www.w3.org/1999/xlink" x="0px" y="0px"
	 viewBox="0 0 512 512" style="enable-background:new 0 0 512 512;" xml:space="preserve">
<style type="text/css">
	.st0{fill:#151514;}
	.st1{fill:#10110F;}
	.st2{fill:url(#SVGID_1_);}
	.st3{fill:#FF7806;}
	.st4{fill:url(#SVGID_00000115508120112696096710000014723562159530114467_);}
	.st5{fill:none;stroke:#FFFFFF;stroke-width:6;stroke-miterlimit:10;}
	.st6{fill:url(#SVGID_00000112599134701436185190000010460590209887088822_);stroke:#FFFFFF;stroke-width:4;stroke-miterlimit:10;}
	.st7{fill:#FFFFFF;}
	.st8{fill:url(#SVGID_00000081609942918114574860000000355770079705519528_);stroke:#FFFFFF;stroke-width:4;stroke-miterlimit:10;}
	.st9{fill:url(#SVGID_00000016074294152791402240000003596566644526632087_);stroke:#FFFFFF;stroke-width:4;stroke-miterlimit:10;}
	.st10{fill:url(#SVGID_00000029746419377116511060000012874165291123759003_);}
	.st11{fill:url(#SVGID_00000150101455831627215970000002786219823433631635_);}
	.st12{fill:#FD6403;}
	.st13{fill:#FE6205;}
	.st14{font-family:'MyriadPro-Regular';}
	.st15{font-size:13.3557px;}
	.st16{letter-spacing:3.67;}
	.st17{letter-spacing:3.7;}
</style>
<g>
	<polygon class="st0" points="396.72,147.77 255.05,76.87 107.42,145.73 107.42,115.03 255.02,31.45 396.72,116.69 	"/>
	<path class="st1" d="M367.47,270.31c-35.08,43.76-70.74,82.88-112.44,107.4c-47.62-31.21-86.68-66.62-112.44-107.4l112.44,58.16
		L367.47,270.31z"/>
	<linearGradient id="SVGID_1_" gradientUnits="userSpaceOnUse" x1="272.2911" y1="342.9801" x2="369.9387" y2="285.7415">
		<stop  offset="0" style="stop-color:#090908"/>
		<stop  offset="0.2119" style="stop-color:#131312"/>
		<stop  offset="0.5775" style="stop-color:#1D1D1D"/>
		<stop  offset="1" style="stop-color:#202020"/>
	</linearGradient>
	<path class="st2" d="M255.03,377.72c41.7-24.52,77.08-63.64,112.16-107.4l-112.16,58.16V377.72z"/>
	<path class="st3" d="M298.49,123.43c33.46,24.74,63.71,52.06,86.88,81.84c-20.89,28.53-51.18,56.69-86.88,83.42
		c55.01-23.34,112-47.44,135.35-58.78c-19.6,3.3-40.37,9.48-61.91,17.54l43.11-42.18l-50.7-49.52l56.14,19.39
		C394.75,161.27,346.16,142.24,298.49,123.43z"/>
	<path class="st1" d="M255.07,103.42L65.36,187.8l63.93-14.64l-36.71,32.1l38.06,36.29l-59.26-13.24l183.68,78.79
		c49.49-29.06,91.5-62.79,120.85-101.88C339.73,159.35,296.86,126.35,255.07,103.42z M181.46,257.18l-56.64-51.92l55.15-46.7
		l19.96-6.29c-20.05,28.83-26.62,55.96-13.69,84.21c-4.75,4.59-3.96,12.68-1.74,16.85c2.03,3.46,8.26,7.7,15.65,6.24
		c1.76,2.23,2.76,2.91,4.78,5.13L181.46,257.18z"/>

		<radialGradient id="SVGID_00000119809757400642353660000013343151275262106756_" cx="254.6882" cy="213.1465" r="33.9011" gradientTransform="matrix(1 0 0 1.0141 0 -12.2576)" gradientUnits="userSpaceOnUse">
		<stop  offset="0.3162" style="stop-color:#FFFFFF"/>
		<stop  offset="0.4301" style="stop-color:#FFE0C3"/>
		<stop  offset="0.6758" style="stop-color:#FFA047"/>
		<stop  offset="0.7842" style="stop-color:#FF8615"/>
		<stop  offset="0.8718" style="stop-color:#FF7E05"/>
	</radialGradient>

		<ellipse style="fill:url(#SVGID_00000119809757400642353660000013343151275262106756_);" cx="254.69" cy="203.89" rx="33.9" ry="34.38"/>
	<ellipse class="st5" cx="254.69" cy="203.89" rx="33.9" ry="34.38"/>
	<g>
		<path class="st5" d="M299.49,225.97c3.05-6.7,4.76-14.18,4.76-22.08c0-25.93-18.36-47.39-42.28-51.06"/>
		<path class="st5" d="M218.55,239.2c9.04,10.03,21.89,16.3,36.14,16.3c14.64,0,27.8-6.61,36.87-17.12"/>
		<path class="st5" d="M247.4,152.83c-23.92,3.67-42.28,25.13-42.28,51.06c0,8.3,1.88,16.14,5.23,23.09"/>
	</g>
	<g>

			<radialGradient id="SVGID_00000005988920695660517160000001251634968649122724_" cx="255.0676" cy="133.4792" r="10.3857" gradientTransform="matrix(1 0 0 1.0141 0 -12.2576)" gradientUnits="userSpaceOnUse">
			<stop  offset="0.3162" style="stop-color:#FFFFFF"/>
			<stop  offset="0.4301" style="stop-color:#FFE0C3"/>
			<stop  offset="0.6758" style="stop-color:#FFA047"/>
			<stop  offset="0.7842" style="stop-color:#FF8615"/>
			<stop  offset="0.8718" style="stop-color:#FF7E05"/>
		</radialGradient>

			<ellipse style="fill:url(#SVGID_00000005988920695660517160000001251634968649122724_);stroke:#FFFFFF;stroke-width:4;stroke-miterlimit:10;" cx="255.07" cy="123.1" rx="10.39" ry="10.53"/>
		<rect x="251.41" y="133.53" class="st7" width="7.11" height="34.36"/>
	</g>
	<g>

			<radialGradient id="SVGID_00000176044862526668570560000003065071235792146575_" cx="-5.2305" cy="180.5009" r="10.3857" gradientTransform="matrix(-0.5604 -0.8399 0.782 -0.5365 52.8324 338.2441)" gradientUnits="userSpaceOnUse">
			<stop  offset="0.3162" style="stop-color:#FFFFFF"/>
			<stop  offset="0.4301" style="stop-color:#FFE0C3"/>
			<stop  offset="0.6758" style="stop-color:#FFA047"/>
			<stop  offset="0.7842" style="stop-color:#FF8615"/>
			<stop  offset="0.8718" style="stop-color:#FF7E05"/>
		</radialGradient>

			<path style="fill:url(#SVGID_00000176044862526668570560000003065071235792146575_);stroke:#FFFFFF;stroke-width:4;stroke-miterlimit:10;" d="
			M191.09,237.08c4.75-3.26,11.21-2,14.42,2.82c3.21,4.82,1.97,11.37-2.78,14.62c-4.75,3.26-11.21,2-14.42-2.82
			C185.1,246.88,186.34,240.33,191.09,237.08z"/>
		<polygon class="st7" points="227.04,220.9 231.02,226.88 207.48,243.03 203.49,237.05 		"/>
	</g>
	<g>

			<radialGradient id="SVGID_00000160177394852524019590000009860147919337236125_" cx="516.5689" cy="125.8883" r="10.3857" gradientTransform="matrix(-0.5653 0.8365 -0.7809 -0.5427 704.7986 -118.8064)" gradientUnits="userSpaceOnUse">
			<stop  offset="0.3162" style="stop-color:#FFFFFF"/>
			<stop  offset="0.4301" style="stop-color:#FFE0C3"/>
			<stop  offset="0.6758" style="stop-color:#FFA047"/>
			<stop  offset="0.7842" style="stop-color:#FF8615"/>
			<stop  offset="0.8718" style="stop-color:#FF7E05"/>
		</radialGradient>

			<path style="fill:url(#SVGID_00000160177394852524019590000009860147919337236125_);stroke:#FFFFFF;stroke-width:4;stroke-miterlimit:10;" d="
			M308.6,253.66c-4.73-3.29-5.94-9.85-2.7-14.64s9.71-6.02,14.44-2.73s5.94,9.85,2.7,14.64S313.33,256.95,308.6,253.66z"/>
		<polygon class="st7" points="279.79,225.12 283.82,219.17 308.05,236.02 304.03,241.97 		"/>
	</g>

		<linearGradient id="SVGID_00000135654050887168345990000006621301267840998529_" gradientUnits="userSpaceOnUse" x1="270.0296" y1="62.1005" x2="394.4742" y2="128.0054">
		<stop  offset="0" style="stop-color:#090908"/>
		<stop  offset="0.2119" style="stop-color:#131312"/>
		<stop  offset="0.5775" style="stop-color:#1D1D1D"/>
		<stop  offset="1" style="stop-color:#202020"/>
	</linearGradient>
	<polygon style="fill:url(#SVGID_00000135654050887168345990000006621301267840998529_);" points="255.02,31.45 255.05,76.87
		396.72,147.77 396.72,116.69 	"/>

		<linearGradient id="SVGID_00000123408801156533505560000012228253306199816598_" gradientUnits="userSpaceOnUse" x1="357.4272" y1="112.0908" x2="402.867" y2="136.1554">
		<stop  offset="0" style="stop-color:#090908;stop-opacity:0.3"/>
		<stop  offset="0.2119" style="stop-color:#131312;stop-opacity:0.3424"/>
		<stop  offset="0.5775" style="stop-color:#1D1D1D;stop-opacity:0.4155"/>
		<stop  offset="1" style="stop-color:#202020;stop-opacity:0.5"/>
	</linearGradient>
	<path style="fill:url(#SVGID_00000123408801156533505560000012228253306199816598_);" d="M396.72,116.69c0,0-27.8,4.99-45.99,8.06
		l45.99,23.02V116.69z"/>
	<polygon class="st1" points="22.02,467.27 9.74,467.27 9.74,406.75 70.1,444.6 70.1,406.96 82.38,406.96 82.38,467.45
		22.08,429.52 	"/>
	<rect x="118.79" y="406.75" class="st12" width="68.18" height="12.09"/>
	<rect x="118.79" y="455.48" class="st12" width="68.18" height="12.09"/>
	<rect x="118.79" y="431.37" class="st12" width="63.63" height="11.52"/>
	<polygon class="st1" points="219.5,406.82 219.5,418.86 248.19,418.86 248.19,467.17 260.4,467.17 260.4,418.79 289.13,418.79
		289.13,406.82 	"/>
	<path class="st1" d="M320.96,406.92v11.87h49.32c3.78,0.79,6.85,2.2,6.97,7.76c-0.23,5.97-3.05,6.49-6.84,7.28h-49.44v33.54h12.75
		v-21.05h30.5l13.73,21.47h14.95l-15-22.93c7.26-4.03,12.28-9.55,12.11-18.49c-0.25-9.43-5.22-18.66-17.5-19.45H320.96z"/>
	<polygon class="st1" points="413.41,467.79 429.53,467.79 457.55,429.26 486.21,467.79 501.45,467.79 457.77,406.72 	"/>
	<path class="st13" d="M457.69,450.49l-12.58,17.3h24.55C469.66,467.79,457.62,450.49,457.69,450.49z"/>
	<text transform="matrix(1.0896 0 0 1 8.833 496.958)"><tspan x="0" y="0" class="st14 st15 st16">NETWORK EVIDENCE</tspan><tspan x="184.35" y="0" class="st12 st14 st15 st16">.</tspan></text>
	<text transform="matrix(1.082 0 0 1 226.3257 496.958)"><tspan x="0" y="0" class="st14 st15 st17">TOTAL RESPONSE</tspan><tspan x="158.58" y="0" class="st12 st14 st15 st17">.</tspan></text>
	<text transform="matrix(1.082 0 0 1 411.1445 496.958)"><tspan x="0" y="0" class="st14 st15 st17">ASSURED</tspan><tspan x="82.74" y="0" class="st12 st14 st15 st17">.</tspan></text>
</g>
</svg>
